<svg width="48" height="48" viewBox="0 0 48 48" fill="none" xmlns="http://www.w3.org/2000/svg">
<path d="M33.5 7H15C12.7909 7 11 8.79086 11 11V37C11 39.2091 12.7909 41 15 41H30.8602C31.911 41 32.9195 40.5865 33.6679 39.849L36.3077 37.2475C37.0705 36.4957 37.5 35.4695 37.5 34.3985V11C37.5 8.79086 35.7091 7 33.5 7Z" stroke="#FDFCF4" stroke-width="2" stroke-linecap="round"/>
<path d="M31 41C31 40.4728 31 38.8474 31 37.1162C31 34.907 32.7909 33.1159 35 33.1159H37" stroke="#FDFCF4" stroke-width="2" stroke-linecap="round"/>
<path d="M22.7162 13.0883C22.6795 13.135 22.6428 13.1717 22.6062 13.1983C22.5728 13.225 22.5228 13.2383 22.4562 13.2383C22.3928 13.2383 22.3312 13.22 22.2712 13.1833C22.2112 13.1433 22.1395 13.1 22.0562 13.0533C21.9728 13.0033 21.8728 12.96 21.7562 12.9233C21.6428 12.8833 21.5012 12.8633 21.3312 12.8633C21.1145 12.8633 20.9245 12.9033 20.7612 12.9833C20.5978 13.06 20.4612 13.1717 20.3512 13.3183C20.2445 13.465 20.1645 13.6433 20.1112 13.8533C20.0578 14.06 20.0312 14.295 20.0312 14.5583C20.0312 14.8317 20.0595 15.075 20.1162 15.2883C20.1762 15.5017 20.2612 15.6817 20.3712 15.8283C20.4812 15.9717 20.6145 16.0817 20.7712 16.1583C20.9278 16.2317 21.1045 16.2683 21.3012 16.2683C21.4978 16.2683 21.6562 16.245 21.7762 16.1983C21.8995 16.1483 22.0028 16.095 22.0862 16.0383C22.1695 15.9783 22.2412 15.925 22.3012 15.8783C22.3645 15.8283 22.4345 15.8033 22.5112 15.8033C22.6112 15.8033 22.6862 15.8417 22.7362 15.9183L23.0912 16.3683C22.9545 16.5283 22.8062 16.6633 22.6462 16.7733C22.4862 16.88 22.3195 16.9667 22.1462 17.0333C21.9762 17.0967 21.7995 17.1417 21.6162 17.1683C21.4328 17.195 21.2512 17.2083 21.0712 17.2083C20.7545 17.2083 20.4562 17.15 20.1762 17.0333C19.8962 16.9133 19.6512 16.74 19.4412 16.5133C19.2345 16.2867 19.0695 16.01 18.9462 15.6833C18.8262 15.3533 18.7662 14.9783 18.7662 14.5583C18.7662 14.1817 18.8195 13.8333 18.9262 13.5133C19.0362 13.19 19.1962 12.9117 19.4062 12.6783C19.6162 12.4417 19.8762 12.2567 20.1862 12.1233C20.4962 11.99 20.8528 11.9233 21.2562 11.9233C21.6395 11.9233 21.9745 11.985 22.2612 12.1083C22.5512 12.2317 22.8112 12.4083 23.0412 12.6383L22.7162 13.0883ZM26.4468 17.1333H25.3268L23.2868 12.0033H24.3118C24.4018 12.0033 24.4768 12.025 24.5368 12.0683C24.6001 12.1117 24.6435 12.1667 24.6668 12.2333L25.6568 14.9733C25.7135 15.1333 25.7601 15.29 25.7968 15.4433C25.8368 15.5967 25.8718 15.75 25.9018 15.9033C25.9318 15.75 25.9651 15.5967 26.0018 15.4433C26.0418 15.29 26.0918 15.1333 26.1518 14.9733L27.1668 12.2333C27.1901 12.1667 27.2318 12.1117 27.2918 12.0683C27.3518 12.025 27.4235 12.0033 27.5068 12.0033H28.4818L26.4468 17.1333Z" fill="#FDFCF4"/>
<path d="M16 21.7333H33M16 26.8333H33M16 31.3667H26" stroke="#FDFCF4" stroke-width="2" stroke-linecap="round"/>
</svg>
