<svg width="48" height="48" viewBox="0 0 48 48" fill="none" xmlns="http://www.w3.org/2000/svg">
<path d="M35 16H13C11.8954 16 11 16.8954 11 18V33C11 34.1046 11.8954 35 13 35H35C36.1046 35 37 34.1046 37 33V18C37 16.8954 36.1046 16 35 16Z" stroke="#FDFCF4" stroke-width="2" stroke-linecap="round"/>
<path d="M36 17L25.2804 25.933C24.5387 26.5511 23.4613 26.5511 22.7196 25.933L12 17" stroke="#FDFCF4" stroke-width="2" stroke-linecap="round"/>
<path d="M41.827 9.39914L41.7594 10.4921C41.7312 10.9475 41.8819 11.3959 42.1796 11.7417L42.8939 12.5717C43.0147 12.7121 42.9462 12.9306 42.7668 12.9768L41.7064 13.2502C41.2646 13.3642 40.8848 13.6461 40.6478 14.0361L40.0792 14.9719C39.983 15.1302 39.754 15.1325 39.6546 14.9762L39.0669 14.0522C38.822 13.6673 38.4365 13.3931 37.9924 13.2883L36.9267 13.0366C36.7464 12.9941 36.6734 12.777 36.7914 12.6342L37.4885 11.7897C37.779 11.4379 37.9206 10.9865 37.8831 10.5318L37.793 9.44044C37.7778 9.25581 37.9617 9.11933 38.134 9.18735L39.1525 9.58943C39.5769 9.75696 40.05 9.75212 40.4709 9.57593L41.4809 9.15308C41.6518 9.08154 41.8384 9.21423 41.827 9.39914Z" stroke="#FDFCF4" stroke-width="1.5"/>
</svg>
