<svg xmlns="http://www.w3.org/2000/svg" xmlns:xlink="http://www.w3.org/1999/xlink" version="1.1" x="0px" y="0px" viewBox="0 0 90 112.5" style="enable-background:new 0 0 90 90;" xml:space="preserve"><path d="M82.9008789,46.3496094c0.0976563,0.0976563,0.2255859,0.1464844,0.3535156,0.1464844  s0.2558594-0.0488281,0.3535156-0.1464844l0.9954834-0.9954834c0.0463867-0.0462646,0.0831909-0.1016846,0.1086426-0.163208  c0.0505371-0.1221924,0.0505371-0.2596436,0-0.3818359c-0.0254517-0.0615234-0.0622559-0.1169434-0.1086426-0.163208  l-0.9954834-0.9954834c-0.1953125-0.1953125-0.5117188-0.1953125-0.7070313,0s-0.1953125,0.5117188,0,0.7070313L83.043457,44.5  h-3.4228516l-1.8408203-1.8408203c-0.1953125-0.1953125-0.5117188-0.1953125-0.7070313,0s-0.1953125,0.5117188,0,0.7070313  L78.206543,44.5h-9.9038086c-0.2217407-0.8174438-0.9626465-1.4238281-1.8496094-1.4238281S64.8249512,43.6825562,64.6030884,44.5  h-1.7036743v-0.4960938c0-0.2763672-0.2236328-0.5-0.5-0.5s-0.5,0.2236328-0.5,0.5v1.9921875c0,0.2763672,0.2236328,0.5,0.5,0.5  s0.5-0.2236328,0.5-0.5V45.5h1.7036743c0.2218628,0.8174438,0.9631348,1.4238281,1.8500366,1.4238281  S68.0809937,46.3174438,68.3027344,45.5h9.9038086l-1.1337891,1.1337891c-0.1953125,0.1953125-0.1953125,0.5117188,0,0.7070313  c0.0976563,0.0976563,0.2255859,0.1464844,0.3535156,0.1464844s0.2558594-0.0488281,0.3535156-0.1464844L79.6206055,45.5h3.4228516  l-0.1425781,0.1425781C82.7055664,45.8378906,82.7055664,46.1542969,82.9008789,46.3496094z M66.453125,45.9238281  c-0.5097656,0-0.9243164-0.4140625-0.9243164-0.9238281s0.4145508-0.9238281,0.9243164-0.9238281  c0.5092773,0,0.9238281,0.4140625,0.9238281,0.9238281S66.9624023,45.9238281,66.453125,45.9238281z"/><path d="M50.0092773,44.7597656c-0.0771484-0.1865234-0.2597656-0.3085938-0.4619141-0.3085938  c-1.2211914,0-2.5014648-0.4277344-3.6743164-0.8134766c-1.8579102-0.9296875-4.2866211-0.5244141-5.7739258,0.9599609  c-0.1557617,0.1552734-0.1914063,0.3955078-0.0874023,0.5898438c0.1040039,0.1933594,0.3188477,0.3007813,0.5390625,0.2539063  c1.2661133-0.2539063,2.4155273,0.1679688,3.6323242,0.6132813c0.7060547,0.2587891,1.4355469,0.5263672,2.1743164,0.6699219  c0.300293,0.0996094,0.5810547,0.1445313,0.8447266,0.1445313c1.1342773,0,1.9570313-0.8222656,2.6987305-1.5644531  C50.0439453,45.1621094,50.0869141,44.9462891,50.0092773,44.7597656z M46.6137695,45.7597656  c-0.7236328-0.1445313-1.4165039-0.3984375-2.0869141-0.6435547c-0.762207-0.2792969-1.5400391-0.5644531-2.3662109-0.6875  c1.0537109-0.4101563,2.2817383-0.390625,3.3305664,0.1308594c0.9428711,0.3144531,1.9086914,0.6367188,2.8901367,0.7939453  C47.8251953,45.7988281,47.3110352,45.9882813,46.6137695,45.7597656z"/><path d="M60.5078125,44.4511719c-1.2099609,0-2.4785156-0.4199219-3.706543-0.8300781  c-1.855957-0.9082031-4.2641602-0.5009766-5.7412109,0.9765625c-0.1557617,0.1552734-0.1914063,0.3955078-0.0874023,0.5898438  c0.1044922,0.1933594,0.3232422,0.3007813,0.5390625,0.2539063c1.2661133-0.25,2.4150391,0.1679688,3.6318359,0.6132813  c0.7060547,0.2587891,1.4360352,0.5263672,2.1748047,0.6699219c0.300293,0.0996094,0.5810547,0.1445313,0.8447266,0.1445313  c1.1337891,0,1.956543-0.8222656,2.6982422-1.5644531c0.1430664-0.1425781,0.1860352-0.3583984,0.1083984-0.5449219  C60.8925781,44.5732422,60.7099609,44.4511719,60.5078125,44.4511719z M57.574707,45.7597656  c-0.7236328-0.1445313-1.4169922-0.3984375-2.0874023-0.6435547c-0.7636719-0.2802734-1.5424805-0.5654297-2.3696289-0.6884766  c1.0493164-0.4121094,2.2636719-0.3974609,3.269043,0.1044922c0.0209961,0.0107422,0.0429688,0.0195313,0.0654297,0.0273438  c0.9428711,0.3144531,1.9082031,0.6367188,2.8896484,0.7939453C58.7856445,45.7988281,58.2719727,45.9882813,57.574707,45.7597656z"/><path d="M38.5864258,44.4511719c-1.2207031,0-2.5009766-0.4277344-3.6738281-0.8134766  c-1.8574219-0.9296875-4.2871094-0.5244141-5.7739258,0.9599609c-0.1557617,0.1552734-0.1914063,0.3955078-0.0874023,0.5898438  c0.1044922,0.1933594,0.3232422,0.3007813,0.5390625,0.2539063c1.2675781-0.25,2.4150391,0.1679688,3.6318359,0.6132813  c0.7060547,0.2587891,1.4360352,0.5263672,2.1748047,0.6699219c0.300293,0.0996094,0.5810547,0.1445313,0.8447266,0.1445313  c1.1337891,0,1.9560547-0.8222656,2.6977539-1.5634766c0.1425781-0.1435547,0.1860352-0.3583984,0.1083984-0.5458984  C38.9707031,44.5732422,38.7885742,44.4511719,38.5864258,44.4511719z M35.6533203,45.7597656  c-0.7236328-0.1445313-1.4169922-0.3984375-2.0874023-0.6435547c-0.762207-0.2792969-1.5400391-0.5644531-2.3657227-0.6875  c1.0532227-0.4111328,2.28125-0.390625,3.3305664,0.1308594c0.9428711,0.3144531,1.9086914,0.6367188,2.8896484,0.7939453  C36.8642578,45.7988281,36.3505859,45.9882813,35.6533203,45.7597656z"/><path d="M27.6005859,46.4960938c0.2763672,0,0.5-0.2236328,0.5-0.5v-1.9921875c0-0.2763672-0.2236328-0.5-0.5-0.5  s-0.5,0.2236328-0.5,0.5V44.5h-1.7036743c-0.2218628-0.8174438-0.9630737-1.4238281-1.8500366-1.4238281  S21.9190063,43.6825562,21.6972656,44.5H11.793457l1.1337891-1.1337891c0.1953125-0.1953125,0.1953125-0.5117188,0-0.7070313  s-0.5117188-0.1953125-0.7070313,0L10.3793945,44.5H6.956543l0.1425781-0.1425781  c0.1953125-0.1953125,0.1953125-0.5117188,0-0.7070313s-0.5117188-0.1953125-0.7070313,0L5.3966064,44.645874  c-0.0463867,0.0462646-0.0831909,0.1016846-0.1086426,0.163208c-0.0505371,0.1221924-0.0505371,0.2596436,0,0.3818359  c0.0254517,0.0615234,0.0622559,0.1169434,0.1086426,0.163208l0.9954834,0.9954834  c0.0976563,0.0976563,0.2255859,0.1464844,0.3535156,0.1464844s0.2558594-0.0488281,0.3535156-0.1464844  c0.1953125-0.1953125,0.1953125-0.5117188,0-0.7070313L6.956543,45.5h3.4228516l1.8408203,1.8408203  c0.0976563,0.0976563,0.2255859,0.1464844,0.3535156,0.1464844s0.2558594-0.0488281,0.3535156-0.1464844  c0.1953125-0.1953125,0.1953125-0.5117188,0-0.7070313L11.793457,45.5h9.9038086  c0.2217407,0.8174438,0.9627075,1.4238281,1.8496094,1.4238281S25.1750488,46.3174438,25.3969116,45.5h1.7036743v0.4960938  C27.1005859,46.2724609,27.3242188,46.4960938,27.6005859,46.4960938z M23.546875,45.9238281  c-0.5092773,0-0.9238281-0.4140625-0.9238281-0.9238281s0.4145508-0.9238281,0.9238281-0.9238281  c0.5097656,0,0.9243164,0.4140625,0.9243164,0.9238281S24.0566406,45.9238281,23.546875,45.9238281z"/><text x="0" y="105" fill="#000000" font-size="5px" font-weight="bold" font-family="'Helvetica Neue', Helvetica, Arial-Unicode, Arial, Sans-serif">Created by iconcheese</text><text x="0" y="110" fill="#000000" font-size="5px" font-weight="bold" font-family="'Helvetica Neue', Helvetica, Arial-Unicode, Arial, Sans-serif">from the Noun Project</text></svg>